<?xml version="1.0" encoding="utf-8"?>
<!-- Generator: Adobe Illustrator 17.1.0, SVG Export Plug-In . SVG Version: 6.00 Build 0)  -->
<!DOCTYPE svg PUBLIC "-//W3C//DTD SVG 1.0//EN" "http://www.w3.org/TR/2001/REC-SVG-20010904/DTD/svg10.dtd">
<svg version="1.0" id="Layer_1" xmlns="http://www.w3.org/2000/svg" xmlns:xlink="http://www.w3.org/1999/xlink" x="0px" y="0px"
	 viewBox="0 0 378.9 48.9" enable-background="new 0 0 378.9 48.9" xml:space="preserve">
<polygon fill="none" stroke="#FFFFFF" stroke-width="2" stroke-miterlimit="10" points="26.3,0 4.5,43 47.9,43 "/>
<polygon fill="#FEFEFE" stroke="#FFFFFF" stroke-miterlimit="10" points="4.5,48.9 26.2,8.5 47.9,48.9 "/>
<g>
	<path fill="#FEFEFE" d="M71.2,13.5h4.6L64.7,25.6l13.8,13.4h-5L60.4,26.4v12.6h-3.7V13.5h3.7v11.7L71.2,13.5z"/>
	<path fill="#FEFEFE" d="M89.5,13.3h2.6l11.5,25.7h-3.7l-3.4-7.6H85.5l-3.2,7.6h-3.8L89.5,13.3z M94.9,28.2L90.8,19l-3.8,9.3H94.9z"
		/>
	<path fill="#FEFEFE" d="M106.5,39.1V13.5h6.4c2.6,0,4.6,0.6,6.2,1.9c1.5,1.3,2.3,3,2.3,5.2c0,1.5-0.4,2.8-1.1,3.9
		c-0.7,1.1-1.8,1.9-3.2,2.4c0.8,0.5,1.6,1.3,2.4,2.2s1.9,2.5,3.3,4.9c0.9,1.5,1.6,2.5,2.1,3.3l1.4,1.8h-4.4l-1.1-1.7
		c0-0.1-0.1-0.2-0.2-0.3l-0.7-1l-1.1-1.9l-1.2-2c-0.8-1.1-1.4-1.9-2.1-2.5s-1.2-1.1-1.7-1.3c-0.5-0.3-1.4-0.4-2.6-0.4h-1v11.1H106.5
		z M111.2,16.6h-1.1v8.1h1.4c1.9,0,3.1-0.2,3.8-0.5c0.7-0.3,1.2-0.8,1.6-1.4c0.4-0.6,0.6-1.4,0.6-2.2c0-0.8-0.2-1.5-0.6-2.2
		c-0.4-0.7-1-1.1-1.8-1.4C114.3,16.7,113,16.6,111.2,16.6z"/>
	<path fill="#FEFEFE" d="M128.8,39.1V13.5h8.1c2.4,0,4.4,0.7,5.8,2c1.5,1.3,2.2,3.1,2.2,5.3c0,1.5-0.4,2.8-1.1,4
		c-0.7,1.1-1.8,2-3.1,2.5c-1.3,0.5-3.1,0.8-5.6,0.8h-2.7v11.1H128.8z M136.3,16.7h-3.8v8h4c1.5,0,2.6-0.4,3.4-1.1s1.2-1.7,1.2-3
		C141.1,18,139.5,16.7,136.3,16.7z"/>
	<path fill="#FEFEFE" d="M153.3,13.3h2.6l11.5,25.7h-3.7l-3.4-7.6h-10.9l-3.2,7.6h-3.8L153.3,13.3z M158.7,28.2l-4.1-9.3l-3.8,9.3
		H158.7z"/>
	<path fill="#FEFEFE" d="M164.2,13.5h21.4v3.3h-8.9v22.4H173V16.7h-8.8V13.5z"/>
	<path fill="#FEFEFE" d="M204.4,13.5h4.4l-9.4,12v13.5h-3.8V25.5l-9.4-12h4.4l6.8,8.8L204.4,13.5z"/>
	<path fill="#FEFEFE" d="M209.5,13.5h21.4v3.3h-8.9v22.4h-3.7V16.7h-8.8V13.5z"/>
	<path fill="#FEFEFE" d="M252.1,13.5h3.7V28c0,2-0.1,3.4-0.4,4.4c-0.3,1-0.6,1.8-1.1,2.5c-0.4,0.7-0.9,1.3-1.5,1.8
		c-2,1.7-4.7,2.6-7.9,2.6c-3.3,0-6-0.9-8-2.6c-0.6-0.5-1.1-1.1-1.5-1.8c-0.4-0.7-0.8-1.5-1-2.4c-0.3-1-0.4-2.5-0.4-4.5V13.5h3.7V28
		c0,2.4,0.3,4.1,0.8,5c0.5,0.9,1.4,1.7,2.5,2.3c1.1,0.6,2.4,0.9,4,0.9c2.2,0,3.9-0.6,5.3-1.7c0.7-0.6,1.2-1.3,1.6-2.2
		s0.5-2.3,0.5-4.3V13.5z"/>
	<path fill="#FEFEFE" d="M261,39.1V13.5h6.4c2.6,0,4.6,0.6,6.2,1.9c1.5,1.3,2.3,3,2.3,5.2c0,1.5-0.4,2.8-1.1,3.9
		c-0.7,1.1-1.8,1.9-3.2,2.4c0.8,0.5,1.6,1.3,2.4,2.2s1.9,2.5,3.3,4.9c0.9,1.5,1.6,2.5,2.1,3.3l1.4,1.8h-4.4l-1.1-1.7
		c0-0.1-0.1-0.2-0.2-0.3l-0.7-1l-1.1-1.9l-1.2-2c-0.8-1.1-1.4-1.9-2.1-2.5s-1.2-1.1-1.7-1.3c-0.5-0.3-1.4-0.4-2.6-0.4h-1v11.1H261z
		 M265.7,16.6h-1.1v8.1h1.4c1.9,0,3.1-0.2,3.8-0.5c0.7-0.3,1.2-0.8,1.6-1.4c0.4-0.6,0.6-1.4,0.6-2.2c0-0.8-0.2-1.5-0.6-2.2
		c-0.4-0.7-1-1.1-1.8-1.4C268.8,16.7,267.5,16.6,265.7,16.6z"/>
	<path fill="#FEFEFE" d="M284.8,35c0.6,0,1.2,0.2,1.6,0.6s0.7,1,0.7,1.6c0,0.6-0.2,1.1-0.6,1.5c-0.4,0.4-1,0.6-1.6,0.6
		c-0.6,0-1.1-0.2-1.6-0.6c-0.4-0.4-0.6-0.9-0.6-1.5c0-0.6,0.2-1.1,0.6-1.6C283.6,35.2,284.2,35,284.8,35z"/>
	<path fill="#FEFEFE" d="M291.8,13.5h3.7v25.6h-3.7V13.5z"/>
	<path fill="#FEFEFE" d="M321.4,13.5h3.5v25.6h-3.1l-17.1-19.7v19.7h-3.4V13.5h3l17.2,19.9V13.5z"/>
	<path fill="#FEFEFE" d="M330.4,13.5h13.6v3.3h-10v7.1h10v3.3h-10v11.9h-3.7V13.5z"/>
	<path fill="#FEFEFE" d="M360.5,13.1c4,0,7.2,1.3,9.9,3.8s3.9,5.6,3.9,9.4s-1.3,6.9-4,9.4c-2.7,2.5-6,3.7-10,3.7
		c-3.9,0-7.1-1.2-9.6-3.7c-2.6-2.5-3.9-5.6-3.9-9.3c0-3.8,1.3-7,3.9-9.5C353.3,14.4,356.6,13.1,360.5,13.1z M360.7,16.6
		c-2.9,0-5.3,0.9-7.2,2.7s-2.8,4.2-2.8,7c0,2.8,0.9,5.1,2.8,6.9c1.9,1.8,4.3,2.7,7.1,2.7c2.9,0,5.2-0.9,7.1-2.8
		c1.9-1.9,2.9-4.2,2.9-7c0-2.7-1-5-2.9-6.8C365.8,17.5,363.5,16.6,360.7,16.6z"/>
</g>
</svg>
